<svg width="44" height="45" viewBox="0 0 44 45" fill="none" xmlns="http://www.w3.org/2000/svg">
<g id="Icon">
<circle id="Ellipse 1" cx="21.833" cy="22.5176" r="21.7676" fill="#4EAF4E"/>
<path id="Vector" d="M18.9736 22.6572H24.4906" stroke="#0D0D0D" stroke-linecap="round" stroke-linejoin="round"/>
<path id="Vector_2" d="M18.9736 25.4155H24.4906" stroke="#0D0D0D" stroke-linecap="round" stroke-linejoin="round"/>
<path id="Vector_3" d="M15.5256 15.0713H27.9387C28.1216 15.0713 28.297 15.1439 28.4264 15.2733C28.5557 15.4026 28.6284 15.578 28.6284 15.7609V28.8637C28.6284 29.4124 28.4104 29.9386 28.0224 30.3266C27.6344 30.7146 27.1082 30.9326 26.5595 30.9326H16.9048C16.3561 30.9326 15.8299 30.7146 15.4419 30.3266C15.0539 29.9386 14.8359 29.4124 14.8359 28.8637V15.7609C14.8359 15.578 14.9086 15.4026 15.0379 15.2733C15.1673 15.1439 15.3427 15.0713 15.5256 15.0713V15.0713Z" stroke="#0D0D0D" stroke-linecap="round" stroke-linejoin="round"/>
<path id="Vector_4" d="M17.5938 13.6924V16.4509" stroke="#0D0D0D" stroke-linecap="round" stroke-linejoin="round"/>
<path id="Vector_5" d="M21.7314 13.6924V16.4509" stroke="#0D0D0D" stroke-linecap="round" stroke-linejoin="round"/>
<path id="Vector_6" d="M25.8691 13.6924V16.4509" stroke="#0D0D0D" stroke-linecap="round" stroke-linejoin="round"/>
</g>
</svg>
