<svg xmlns="http://www.w3.org/2000/svg" width="20" height="19" viewBox="0 0 20 19" fill="none">
    <path d="M13.5322 1.53379C14.5868 1.53682 15.5974 1.94133 16.3432 2.65898C17.089 3.37663 17.5094 4.3491 17.5125 5.364V13.0236C17.5094 14.0385 17.089 15.011 16.3432 15.7286C15.5974 16.4463 14.5868 16.8508 13.5322 16.8538H5.57226C4.51757 16.8508 3.50698 16.4463 2.7612 15.7286C2.01541 15.011 1.59504 14.0385 1.59189 13.0236V5.364C1.59504 4.3491 2.01541 3.37663 2.7612 2.65898C3.50698 1.94133 4.51757 1.53682 5.57226 1.53379H13.5322V1.53379ZM13.5322 0.00195312H5.57226C2.50745 0.00195313 0 2.41481 0 5.364V13.0236C0 15.9728 2.50745 18.3857 5.57226 18.3857H13.5322C16.597 18.3857 19.1044 15.9728 19.1044 13.0236V5.364C19.1044 2.41481 16.597 0.00195312 13.5322 0.00195312V0.00195312Z" fill="white"/>
    <path d="M13.9501 4.29796C13.7139 4.29796 13.4831 4.23058 13.2867 4.10433C13.0904 3.97807 12.9373 3.79863 12.8469 3.58868C12.7566 3.37873 12.7329 3.14771 12.779 2.92483C12.8251 2.70195 12.9388 2.49722 13.1058 2.33653C13.2728 2.17584 13.4855 2.06641 13.7171 2.02208C13.9487 1.97774 14.1888 2.0005 14.407 2.08746C14.6252 2.17443 14.8117 2.32169 14.9429 2.51064C15.0741 2.69959 15.1441 2.92173 15.1441 3.14898C15.1444 3.29996 15.1138 3.44951 15.0539 3.58906C14.994 3.72861 14.9061 3.8554 14.7951 3.96216C14.6842 4.06892 14.5524 4.15354 14.4074 4.21116C14.2624 4.26879 14.107 4.29829 13.9501 4.29796V4.29796ZM8.77611 5.06368C9.40588 5.06368 10.0215 5.24338 10.5452 5.58007C11.0688 5.91676 11.4769 6.3953 11.7179 6.95519C11.9589 7.51508 12.022 8.13116 11.8991 8.72554C11.7763 9.31991 11.473 9.86588 11.0277 10.2944C10.5824 10.7229 10.015 11.0147 9.39731 11.133C8.77964 11.2512 8.1394 11.1905 7.55756 10.9586C6.97572 10.7267 6.47842 10.334 6.12853 9.83008C5.77865 9.32619 5.59189 8.73378 5.59189 8.12776C5.5928 7.31538 5.92857 6.53653 6.52553 5.96209C7.12249 5.38765 7.93188 5.06455 8.77611 5.06368V5.06368ZM8.77611 3.53184C7.83148 3.53184 6.90807 3.80138 6.12264 4.30639C5.33722 4.8114 4.72505 5.52918 4.36356 6.36898C4.00207 7.20878 3.90749 8.13286 4.09177 9.02439C4.27606 9.91591 4.73094 10.7348 5.39889 11.3776C6.06684 12.0203 6.91786 12.458 7.84433 12.6354C8.77081 12.8127 9.73112 12.7217 10.6038 12.3738C11.4766 12.026 12.2225 11.4369 12.7473 10.6811C13.2721 9.92533 13.5522 9.03675 13.5522 8.12776C13.5522 6.90885 13.049 5.73986 12.1533 4.87795C11.2576 4.01605 10.0428 3.53184 8.77611 3.53184V3.53184Z" fill="white"/>
</svg>